<svg width="512" height="512" viewBox="0 0 512 512" fill="none" xmlns="http://www.w3.org/2000/svg">
<rect width="512" height="512" fill="url(#paint0_linear_2101_6)"/>
<path d="M151.537 299.579C152.96 301.002 154.258 302.053 155.434 302.733C156.609 303.352 157.536 303.692 158.217 303.754C158.897 303.816 159.856 303.847 161.093 303.847C162.392 303.847 164.154 303.259 166.381 302.084L169.35 308.764C165.206 313.897 160.103 317.515 154.042 319.618C151.506 320.484 149.465 320.917 147.919 320.917C142.043 320.917 137.095 319.433 133.075 316.464C129.055 313.495 125.591 310.062 122.685 306.166C119.778 302.27 117.025 297.816 114.428 292.807C109.604 283.653 105.893 274.345 103.295 264.882C97.7285 265.624 91.6364 265.995 85.0186 265.995V286.405C85.0186 291.415 85.3896 299.424 86.1318 310.434L86.5029 316C81.2458 317.608 74.9681 318.412 67.6699 318.412C60.4336 318.412 55.8258 317.608 53.8467 316C55.6403 302.95 56.5371 292.992 56.5371 286.127V211.723C56.5371 206.218 56.0423 202.693 55.0527 201.146C54.0632 199.6 53.4137 198.611 53.1045 198.178C52.7952 197.683 52.2386 197.219 51.4346 196.786C50.6924 196.291 50.1667 195.951 49.8574 195.766C49.1771 195.456 48.0947 195.054 46.6104 194.56C45.6826 192.147 45.2188 189.766 45.2188 187.416C45.2188 185.004 45.2497 183.52 45.3115 182.963C61.887 180.427 80.1943 179.159 100.233 179.159H105.521C118.695 179.407 129.952 182.654 139.291 188.9C143.868 191.993 147.517 196.013 150.238 200.961C152.96 205.909 154.32 211.506 154.32 217.753C154.32 228.144 151.815 237.019 146.806 244.379C141.858 251.677 133.663 257.182 122.221 260.893C127.045 267.387 131.096 272.953 134.374 277.592C137.652 282.23 140.312 285.91 142.353 288.632C144.394 291.353 146.063 293.487 147.362 295.033C148.723 296.579 150.115 298.095 151.537 299.579ZM126.859 217.938C126.859 201.61 117.149 193.446 97.7285 193.446C94.0794 193.446 89.8428 193.694 85.0186 194.188V251.615C106.913 250.688 119.994 244.874 124.262 234.174C125.993 229.659 126.859 224.247 126.859 217.938ZM182.987 290.209C182.987 282.973 187.131 279.354 195.419 279.354C199.625 279.354 203.769 280.437 207.851 282.602C207.851 290.456 209.49 296.487 212.768 300.692C216.046 304.836 221.643 306.908 229.56 306.908C237.538 306.908 243.383 305.393 247.094 302.362C250.805 299.332 252.66 294.507 252.66 287.89C252.66 280.839 249.939 274.809 244.496 269.799C240.043 265.655 234.879 262.068 229.003 259.037C223.127 256.007 218.396 253.533 214.809 251.615C211.221 249.636 207.789 247.471 204.511 245.121C201.295 242.771 198.419 240.235 195.883 237.514C190.44 231.638 187.719 224.618 187.719 216.454C187.719 208.228 189.853 201.301 194.12 195.673C202.47 184.664 216.046 179.159 234.848 179.159C249.32 179.159 260.36 182.159 267.968 188.158C274.895 193.663 278.358 199.786 278.358 206.527C278.358 209.682 277.276 212.279 275.111 214.32C273.008 216.361 269.73 217.382 265.277 217.382C260.824 217.382 256.247 216.238 251.547 213.949C251.547 213.516 251.547 213.114 251.547 212.743C251.547 205.878 250.001 200.373 246.908 196.229C243.878 192.086 239.27 190.014 233.085 190.014C226.9 190.014 221.983 191.745 218.334 195.209C214.747 198.673 212.953 203.775 212.953 210.517C212.953 216.33 215.798 221.433 221.488 225.824C225.447 228.917 230.642 232.071 237.074 235.287C243.507 238.503 248.578 241.132 252.289 243.173C256.062 245.152 259.649 247.41 263.051 249.945C266.452 252.419 269.452 255.141 272.05 258.109C277.74 264.542 280.585 271.964 280.585 280.375C280.585 288.725 278.327 295.806 273.812 301.62C269.298 307.372 263.267 311.763 255.722 314.794C248.176 317.763 240.569 319.247 232.899 319.247C225.292 319.247 218.86 318.629 213.603 317.392C208.345 316.216 203.892 314.639 200.243 312.66C196.594 310.619 193.44 308.331 190.78 305.795C185.585 300.847 182.987 295.652 182.987 290.209ZM368.256 190.57C374.132 186.426 380.007 184.354 385.883 184.354C392.686 184.354 397.727 188.127 401.005 195.673C403.664 201.796 405.922 209.929 407.777 220.072C409.695 230.215 411.272 238.627 412.509 245.307C415.601 262.006 419.745 277.592 424.94 292.064C441.021 231.885 449.371 198.703 449.989 192.519C450.113 191.529 450.175 189.89 450.175 187.602C450.175 185.313 449.618 183.334 448.505 181.664C448.505 181.046 449.402 180.489 451.195 179.994C452.989 179.438 454.813 179.159 456.669 179.159C462.297 179.159 466.843 180.953 470.307 184.54C473.77 188.127 475.502 191.9 475.502 195.858C475.502 199.817 474.667 204.981 472.997 211.352C471.327 217.722 468.513 226.072 464.555 236.4C460.596 246.729 457.318 255.079 454.721 261.449C452.123 267.82 447.825 278.025 441.825 292.064C435.888 306.042 432.146 314.856 430.6 318.505C428.435 318.938 425.806 319.154 422.714 319.154C419.683 319.154 416.715 318.721 413.808 317.855C410.963 317.051 409.014 315.938 407.963 314.516C406.54 312.475 402.891 300.507 397.016 278.612C391.14 256.656 387.398 243.327 385.79 238.627C384.182 241.843 382.11 248.894 379.574 259.779C377.038 270.665 374.348 281.952 371.503 293.642C368.658 305.331 366.06 313.619 363.71 318.505C361.545 318.938 358.979 319.154 356.01 319.154C353.041 319.154 350.196 318.721 347.475 317.855C344.753 317.051 342.929 316 342.001 314.701C341.073 313.34 338.754 306.846 335.043 295.219C331.332 283.529 327.405 271.098 323.261 257.924C319.117 244.688 314.602 232.164 309.716 220.351C304.892 208.476 300.995 201.61 298.026 199.755C296.913 199.075 295.831 198.703 294.779 198.642C293.79 198.58 292.8 198.518 291.811 198.456C290.821 198.394 290.172 198.363 289.862 198.363C288.873 195.951 288.378 194.127 288.378 192.89C288.378 191.591 288.409 190.756 288.471 190.385C297.439 185.375 307.984 182.87 320.106 182.87C322.209 182.87 323.756 182.901 324.745 182.963C325.982 184.262 328.116 189.983 331.146 200.126C334.177 210.207 338.383 224.896 343.764 244.193C349.206 263.49 353.907 279.633 357.865 292.621C366.462 252.729 372.987 226.443 377.44 213.764C374.843 206.527 371.781 198.796 368.256 190.57Z" fill="#FAFAFA"/>
<defs>
<linearGradient id="paint0_linear_2101_6" x1="256" y1="0" x2="256" y2="512" gradientUnits="userSpaceOnUse">
<stop offset="0.55" stop-color="#0084FF"/>
<stop offset="1" stop-color="#64D2FF"/>
</linearGradient>
</defs>
</svg>
